<svg width="14" height="14" viewBox="0 0 14 14" fill="none" xmlns="http://www.w3.org/2000/svg">
<path d="M14 3.09663C13.4794 3.325 12.9246 3.47637 12.3462 3.54987C12.9412 3.19462 13.3954 2.63637 13.6089 1.9635C13.0541 2.29425 12.4416 2.52788 11.7889 2.65825C11.2621 2.09738 10.5114 1.75 9.69238 1.75C8.10337 1.75 6.82412 3.03975 6.82412 4.62088C6.82412 4.84838 6.84338 5.06712 6.89062 5.27537C4.5045 5.159 2.39313 4.01538 0.97475 2.27325C0.727125 2.70288 0.581875 3.19463 0.581875 3.724C0.581875 4.718 1.09375 5.59912 1.85675 6.10925C1.39562 6.1005 0.94325 5.96663 0.56 5.75575C0.56 5.7645 0.56 5.77588 0.56 5.78725C0.56 7.182 1.55487 8.3405 2.8595 8.60738C2.62587 8.67125 2.37125 8.70187 2.107 8.70187C1.92325 8.70187 1.73775 8.69137 1.56362 8.65287C1.9355 9.7895 2.99075 10.6251 4.2455 10.6523C3.269 11.4161 2.02912 11.8764 0.686875 11.8764C0.4515 11.8764 0.22575 11.8659 0 11.837C1.27137 12.6569 2.77813 13.125 4.403 13.125C9.6845 13.125 12.572 8.75 12.572 4.95775C12.572 4.83087 12.5676 4.70837 12.5615 4.58675C13.1311 4.1825 13.6097 3.67763 14 3.09663Z" fill="white"/>
</svg>
