<svg width="16" height="16" viewBox="0 0 16 16" fill="none" xmlns="http://www.w3.org/2000/svg">
<path d="M8 16C3.5816 16 0 12.4184 0 8C0 3.5816 3.5816 0 8 0C12.4184 0 16 3.5816 16 8C16 12.4184 12.4184 16 8 16ZM6.168 14.1336C5.37873 12.4595 4.9215 10.6482 4.8216 8.8H1.6496C1.80527 10.0311 2.31514 11.1905 3.11725 12.1374C3.91937 13.0842 4.97921 13.7777 6.168 14.1336ZM6.424 8.8C6.5448 10.7512 7.1024 12.584 8 14.2016C8.92186 12.5412 9.46035 10.6956 9.576 8.8H6.424ZM14.3504 8.8H11.1784C11.0785 10.6482 10.6213 12.4595 9.832 14.1336C11.0208 13.7777 12.0806 13.0842 12.8827 12.1374C13.6849 11.1905 14.1947 10.0311 14.3504 8.8ZM1.6496 7.2H4.8216C4.9215 5.35183 5.37873 3.54055 6.168 1.8664C4.97921 2.2223 3.91937 2.9158 3.11725 3.86264C2.31514 4.80947 1.80527 5.96888 1.6496 7.2ZM6.4248 7.2H9.5752C9.4598 5.30448 8.92158 3.45883 8 1.7984C7.07814 3.45876 6.53965 5.30442 6.424 7.2H6.4248ZM9.832 1.8664C10.6213 3.54055 11.0785 5.35183 11.1784 7.2H14.3504C14.1947 5.96888 13.6849 4.80947 12.8827 3.86264C12.0806 2.9158 11.0208 2.2223 9.832 1.8664Z" fill="#BFD4F5"/>
</svg>
