<svg width="171" height="28" viewBox="0 0 171 28" fill="none">
	<path d="M0.52002 1.80009H7.64802V27.0001H0.52002V1.80009Z" fill="white"/>
	<path d="M27.6592 26.2081C27.0832 26.5681 26.3752 26.8441 25.5352 27.0361C24.7192 27.2281 23.8432 27.3241 22.9072 27.3241C20.3632 27.3241 18.4072 26.7001 17.0392 25.4521C15.6712 24.2041 14.9872 22.3441 14.9872 19.8721V13.3201H12.1432V8.20809H14.9872V3.13209H21.8272V8.20809H26.2912V13.3201H21.8272V19.8001C21.8272 20.4961 22.0072 21.0481 22.3672 21.4561C22.7512 21.8401 23.2552 22.0321 23.8792 22.0321C24.6712 22.0321 25.3672 21.8281 25.9672 21.4201L27.6592 26.2081Z" fill="white"/>
	<path d="M40.4128 7.16409C43.6528 7.16409 46.1248 7.90809 47.8288 9.39609C49.5328 10.8601 50.3848 13.1161 50.3848 16.1641V27.0001H44.0128V24.4801C43.0288 26.3761 41.1088 27.3241 38.2528 27.3241C36.7408 27.3241 35.4328 27.0601 34.3288 26.5321C33.2248 26.0041 32.3848 25.2961 31.8088 24.4081C31.2568 23.4961 30.9808 22.4641 30.9808 21.3121C30.9808 19.4641 31.6888 18.0361 33.1048 17.0281C34.5208 15.9961 36.7048 15.4801 39.6568 15.4801H43.5448C43.4248 13.4161 42.0448 12.3841 39.4048 12.3841C38.4688 12.3841 37.5208 12.5401 36.5608 12.8521C35.6008 13.1401 34.7848 13.5481 34.1128 14.0761L31.8088 9.43209C32.8888 8.71209 34.1968 8.16009 35.7328 7.77609C37.2928 7.36809 38.8528 7.16409 40.4128 7.16409ZM40.1608 23.0041C40.9528 23.0041 41.6488 22.8121 42.2488 22.4281C42.8488 22.0441 43.2808 21.4801 43.5448 20.7361V19.0441H40.5928C38.6008 19.0441 37.6048 19.7041 37.6048 21.0241C37.6048 21.6241 37.8328 22.1041 38.2888 22.4641C38.7448 22.8241 39.3688 23.0041 40.1608 23.0041Z" fill="white"/>
	<path d="M56.5023 0.288086H63.3423V27.0001H56.5023V0.288086Z" fill="white"/>
	<path d="M81.4314 1.80009C83.7114 1.80009 85.6914 2.18409 87.3714 2.95209C89.0514 3.69609 90.3474 4.77609 91.2594 6.19209C92.1714 7.58409 92.6274 9.22809 92.6274 11.1241C92.6274 13.0201 92.1714 14.6641 91.2594 16.0561C90.3474 17.4481 89.0514 18.5281 87.3714 19.2961C85.6914 20.0401 83.7114 20.4121 81.4314 20.4121H77.0394V27.0001H69.9114V1.80009H81.4314ZM80.9994 14.7961C82.4634 14.7961 83.5674 14.4841 84.3114 13.8601C85.0554 13.2121 85.4274 12.3001 85.4274 11.1241C85.4274 9.94809 85.0554 9.03609 84.3114 8.38809C83.5674 7.74009 82.4634 7.41609 80.9994 7.41609H77.0394V14.7961H80.9994Z" fill="white"/>
	<path d="M97.9304 0.288086H104.77V27.0001H97.9304V0.288086Z" fill="white"/>
	<path d="M119.332 7.16409C122.572 7.16409 125.044 7.90809 126.748 9.39609C128.452 10.8601 129.304 13.1161 129.304 16.1641V27.0001H122.932V24.4801C121.948 26.3761 120.028 27.3241 117.172 27.3241C115.66 27.3241 114.352 27.0601 113.248 26.5321C112.144 26.0041 111.304 25.2961 110.728 24.4081C110.176 23.4961 109.9 22.4641 109.9 21.3121C109.9 19.4641 110.608 18.0361 112.024 17.0281C113.44 15.9961 115.624 15.4801 118.576 15.4801H122.464C122.344 13.4161 120.964 12.3841 118.324 12.3841C117.388 12.3841 116.44 12.5401 115.48 12.8521C114.52 13.1401 113.704 13.5481 113.032 14.0761L110.728 9.43209C111.808 8.71209 113.116 8.16009 114.652 7.77609C116.212 7.36809 117.772 7.16409 119.332 7.16409ZM119.08 23.0041C119.872 23.0041 120.568 22.8121 121.168 22.4281C121.768 22.0441 122.2 21.4801 122.464 20.7361V19.0441H119.512C117.52 19.0441 116.524 19.7041 116.524 21.0241C116.524 21.6241 116.752 22.1041 117.208 22.4641C117.664 22.8241 118.288 23.0041 119.08 23.0041Z" fill="white"/>
	<path d="M142.513 27.3241C140.881 27.3241 139.273 27.1441 137.689 26.7841C136.105 26.4001 134.833 25.9081 133.873 25.3081L135.925 20.6281C136.813 21.1801 137.869 21.6241 139.093 21.9601C140.317 22.2721 141.529 22.4281 142.729 22.4281C143.833 22.4281 144.613 22.3201 145.069 22.1041C145.549 21.8641 145.789 21.5281 145.789 21.0961C145.789 20.6641 145.501 20.3641 144.925 20.1961C144.373 20.0041 143.485 19.8241 142.261 19.6561C140.701 19.4641 139.369 19.2121 138.265 18.9001C137.185 18.5881 136.249 18.0121 135.457 17.1721C134.665 16.3321 134.269 15.1561 134.269 13.6441C134.269 12.3961 134.641 11.2921 135.385 10.3321C136.129 9.34809 137.209 8.58009 138.625 8.02809C140.065 7.45209 141.781 7.16409 143.773 7.16409C145.189 7.16409 146.593 7.30809 147.985 7.59609C149.377 7.88409 150.541 8.29209 151.477 8.82009L149.425 13.4641C147.697 12.5041 145.825 12.0241 143.809 12.0241C142.729 12.0241 141.937 12.1561 141.433 12.4201C140.929 12.6601 140.677 12.9841 140.677 13.3921C140.677 13.8481 140.953 14.1721 141.505 14.3641C142.057 14.5321 142.969 14.7121 144.241 14.9041C145.849 15.1441 147.181 15.4201 148.237 15.7321C149.293 16.0441 150.205 16.6201 150.973 17.4601C151.765 18.2761 152.161 19.4281 152.161 20.9161C152.161 22.1401 151.789 23.2441 151.045 24.2281C150.301 25.1881 149.197 25.9441 147.733 26.4961C146.293 27.0481 144.553 27.3241 142.513 27.3241Z" fill="white"/>
	<path d="M170.373 26.2081C169.797 26.5681 169.089 26.8441 168.249 27.0361C167.433 27.2281 166.557 27.3241 165.621 27.3241C163.077 27.3241 161.121 26.7001 159.753 25.4521C158.385 24.2041 157.701 22.3441 157.701 19.8721V13.3201H154.857V8.20809H157.701V3.13209H164.541V8.20809H169.005V13.3201H164.541V19.8001C164.541 20.4961 164.721 21.0481 165.081 21.4561C165.465 21.8401 165.969 22.0321 166.593 22.0321C167.385 22.0321 168.081 21.8281 168.681 21.4201L170.373 26.2081Z" fill="white"/>
</svg>
