<svg width="60" height="11" viewBox="0 0 60 11" fill="none" xmlns="http://www.w3.org/2000/svg">
<path fill-rule="evenodd" clip-rule="evenodd" d="M46.5488 0.154041C43.7742 0.00971694 41.4958 2.21512 41.4958 4.94269C41.4958 7.58431 43.6348 9.72323 46.291 9.72323C49.051 9.72323 51.2629 7.38809 51.0602 4.58431C50.8867 2.20215 48.9342 0.277284 46.5488 0.154041ZM46.3721 7.62485C44.838 7.67026 43.5926 6.4508 43.5926 4.94107C43.5926 3.45891 44.7942 2.24269 46.291 2.24269C47.8364 2.24269 49.0786 3.56593 48.9683 5.13404C48.8726 6.49458 47.7342 7.58593 46.3721 7.62485ZM38.8588 6.04714L35.0642 1.30389C34.5988 0.723353 33.8966 0.384434 33.1523 0.384434H29.3983V4.84389C29.3983 6.2693 28.3912 7.45795 27.008 7.45795C25.6102 7.45795 24.6031 6.2693 24.6031 4.84389V0.384434H20.8604C20.2053 0.384434 19.6734 0.916326 19.6734 1.57146V6.04551L15.5853 0.935785C15.3064 0.587137 14.8831 0.382812 14.4356 0.382812C13.6215 0.382812 12.9631 1.04281 12.9631 1.85524V8.37903C12.9631 8.98065 13.4512 9.46876 14.0529 9.46876C14.6545 9.46876 15.1426 8.98065 15.1426 8.37903V4.03308L19.3458 9.07957C19.5534 9.32768 19.8599 9.472 20.1842 9.472H20.7631C21.3648 9.472 21.8529 8.98389 21.8529 8.38227V2.56552H22.3799V4.84389C22.3799 7.76606 24.4215 9.70876 27.008 9.70876C29.5799 9.70876 31.6215 7.76606 31.6215 4.84389V2.56552H32.1485V8.38065C32.1485 8.98227 32.6366 9.47038 33.2383 9.47038C33.8399 9.47038 34.328 8.98227 34.328 8.38065V4.03308L38.5312 9.07957C38.7388 9.32768 39.0453 9.472 39.3696 9.472H39.9485C40.5502 9.472 41.0383 8.98389 41.0383 8.38227V1.47416C41.0383 0.872542 40.5502 0.384434 39.9485 0.384434C39.3469 0.384434 38.8588 0.872542 38.8588 1.47416V6.04714ZM59.5784 0.750786L59.58 0.752408C60.0616 1.23403 60.0648 2.01565 59.5848 2.50214L57.1897 4.92971L59.5816 7.34268C60.0632 7.82754 60.0616 8.60916 59.5784 9.09241C59.0919 9.57889 58.3021 9.57565 57.8189 9.08592L55.4643 6.69889L53.0367 9.09403C52.5519 9.57241 51.7702 9.56916 51.2886 9.08754L51.2789 9.07781C50.7957 8.59457 50.7957 7.81133 51.2773 7.32646L53.6951 4.89889L51.2935 2.52971C50.8038 2.04646 50.8005 1.25673 51.287 0.770246L51.2902 0.767003C51.7719 0.285381 52.5519 0.282138 53.0367 0.758894L55.4643 3.1443L57.8189 0.757273C58.3021 0.267543 59.0919 0.2643 59.5784 0.750786ZM3.70065 7.11239C3.70065 7.77563 3.54822 8.30752 3.24335 8.70969C2.93849 9.11185 2.52984 9.31293 2.01741 9.31293C1.4693 9.31293 1.04605 9.11996 0.746053 8.73239L0.710378 9.23347H0.0292969V3.07617H0.770378V5.37239C1.07038 5.00104 1.48227 4.81455 2.0093 4.81455C2.53633 4.81455 2.94984 5.01401 3.24984 5.41131C3.54984 5.81023 3.70065 6.35509 3.70065 7.04752V7.11239ZM2.95795 7.02806C2.95795 6.52374 2.86065 6.13293 2.66606 5.85725C2.47146 5.58158 2.19092 5.44374 1.82443 5.44374C1.3347 5.44374 0.984432 5.67077 0.770378 6.12482V8.00104C0.997405 8.45509 1.35092 8.68212 1.83254 8.68212C2.18768 8.68212 2.46497 8.54428 2.66281 8.26861C2.85903 7.99617 2.95795 7.58266 2.95795 7.02806ZM7.01843 4.89554L6.00816 8.14689L4.92491 4.89392H4.11572L5.66275 9.18311L5.49897 9.62419C5.40816 9.895 5.2914 10.0799 5.15194 10.182C5.01248 10.2842 4.81626 10.3345 4.56491 10.3345L4.36383 10.3182V10.9199L4.64113 10.9718L4.78221 10.9831C5.36924 10.9831 5.79897 10.6231 6.06816 9.90149L7.8114 4.89554H7.01843Z" fill="white"/>
</svg>
